<?xml version="1.0" encoding="UTF-8" standalone="no"?>
<!DOCTYPE svg PUBLIC "-//W3C//DTD SVG 1.1//EN"
 "http://www.w3.org/Graphics/SVG/1.1/DTD/svg11.dtd">
<!-- Generated by graphviz version 11.0.0 (0)
 -->
<!-- Title: NetworkManagerAutomaton Pages: 1 -->
<svg width="1103pt" height="388pt"
 viewBox="0.00 0.00 1102.82 387.70" xmlns="http://www.w3.org/2000/svg" xmlns:xlink="http://www.w3.org/1999/xlink">
<g id="graph0" class="graph" transform="scale(1 1) rotate(0) translate(4 383.7)">
<title>NetworkManagerAutomaton</title>
<polygon fill="white" stroke="none" points="-4,4 -4,-383.7 1098.82,-383.7 1098.82,4 -4,4"/>
<!-- 0 -->
<g id="node1" class="node">
<title>0</title>
<ellipse fill="none" stroke="black" cx="73.78" cy="-187.73" rx="69.78" ry="69.78"/>
<ellipse fill="none" stroke="black" cx="73.78" cy="-187.73" rx="73.78" ry="73.78"/>
<text text-anchor="middle" x="73.78" y="-182.68" font-family="Times,serif" font-size="14.00">INITIALIZING</text>
</g>
<!-- 1 -->
<g id="node3" class="node">
<title>1</title>
<ellipse fill="none" stroke="black" cx="391.27" cy="-295.73" rx="83.97" ry="83.97"/>
<text text-anchor="middle" x="391.27" y="-307.18" font-family="Times,serif" font-size="14.00">WAITING</text>
<text text-anchor="middle" x="391.27" y="-290.68" font-family="Times,serif" font-size="14.00">REGISTRATION</text>
<text text-anchor="middle" x="391.27" y="-274.18" font-family="Times,serif" font-size="14.00">CONFIRMATION</text>
</g>
<!-- 0&#45;&gt;1 -->
<g id="edge1" class="edge">
<title>0&#45;&gt;1</title>
<path fill="none" stroke="black" d="M144.01,-211.43C190.06,-227.19 250.99,-248.05 300.72,-265.07"/>
<polygon fill="black" stroke="black" points="299.45,-268.34 310.04,-268.26 301.72,-261.71 299.45,-268.34"/>
<text text-anchor="middle" x="227.43" y="-263.93" font-family="Times,serif" font-size="14.00">NodeRole::Trainer</text>
</g>
<!-- 2 -->
<g id="node4" class="node">
<title>2</title>
<ellipse fill="none" stroke="black" cx="391.27" cy="-79.73" rx="79.73" ry="79.73"/>
<text text-anchor="middle" x="391.27" y="-91.18" font-family="Times,serif" font-size="14.00">WAITING</text>
<text text-anchor="middle" x="391.27" y="-74.68" font-family="Times,serif" font-size="14.00">REGISTRATION</text>
<text text-anchor="middle" x="391.27" y="-58.18" font-family="Times,serif" font-size="14.00">REQUEST</text>
</g>
<!-- 0&#45;&gt;2 -->
<g id="edge2" class="edge">
<title>0&#45;&gt;2</title>
<path fill="none" stroke="black" d="M144.01,-164.03C191.25,-147.86 254.13,-126.33 304.53,-109.08"/>
<polygon fill="black" stroke="black" points="305.65,-112.39 313.98,-105.84 303.39,-105.77 305.65,-112.39"/>
<text text-anchor="middle" x="227.43" y="-158.93" font-family="Times,serif" font-size="14.00">NodeRole::Aggregator</text>
</g>
<!-- 4 -->
<g id="node2" class="node">
<title>4</title>
<ellipse fill="none" stroke="black" cx="1031.82" cy="-187.73" rx="48.28" ry="48.28"/>
<ellipse fill="none" stroke="black" cx="1031.82" cy="-187.73" rx="52.28" ry="52.28"/>
<text text-anchor="middle" x="1031.82" y="-182.68" font-family="Times,serif" font-size="14.00">KILLING</text>
</g>
<!-- 4&#45;&gt;4 -->
<g id="edge8" class="edge">
<title>4&#45;&gt;4</title>
<path fill="none" stroke="black" d="M1007.93,-234.69C1008.98,-247.88 1016.94,-258.01 1031.82,-258.01 1042.16,-258.01 1049.17,-253.11 1052.82,-245.7"/>
<polygon fill="black" stroke="black" points="1056.17,-246.72 1055.32,-236.16 1049.4,-244.94 1056.17,-246.72"/>
<text text-anchor="middle" x="1031.82" y="-261.21" font-family="Times,serif" font-size="14.00">wait send pending msg</text>
</g>
<!-- 3 -->
<g id="node5" class="node">
<title>3</title>
<ellipse fill="none" stroke="black" cx="774.64" cy="-187.73" rx="53.4" ry="53.4"/>
<text text-anchor="middle" x="774.64" y="-182.68" font-family="Times,serif" font-size="14.00">RUNNING</text>
</g>
<!-- 1&#45;&gt;3 -->
<g id="edge3" class="edge">
<title>1&#45;&gt;3</title>
<path fill="none" stroke="black" d="M472.22,-273.09C543.66,-252.85 646.83,-223.64 712.04,-205.17"/>
<polygon fill="black" stroke="black" points="712.84,-208.58 721.51,-202.49 710.93,-201.85 712.84,-208.58"/>
<text text-anchor="middle" x="598.24" y="-269.93" font-family="Times,serif" font-size="14.00">RegistrationConfirmation</text>
</g>
<!-- 2&#45;&gt;2 -->
<g id="edge4" class="edge">
<title>2&#45;&gt;2</title>
<path fill="none" stroke="black" d="M362.24,-154.29C365.91,-167.91 375.59,-177.45 391.27,-177.45 402.54,-177.45 410.71,-172.52 415.78,-164.69"/>
<polygon fill="black" stroke="black" points="418.92,-166.25 419.7,-155.68 412.5,-163.45 418.92,-166.25"/>
<text text-anchor="middle" x="391.27" y="-180.65" font-family="Times,serif" font-size="14.00">RegistrationRequest</text>
</g>
<!-- 2&#45;&gt;3 -->
<g id="edge5" class="edge">
<title>2&#45;&gt;3</title>
<path fill="none" stroke="black" d="M468.53,-101.32C540.08,-121.59 645.75,-151.51 712.08,-170.29"/>
<polygon fill="black" stroke="black" points="710.75,-173.55 721.33,-172.91 712.66,-166.82 710.75,-173.55"/>
<text text-anchor="middle" x="598.24" y="-169.93" font-family="Times,serif" font-size="14.00">clock &gt; REGISTRATION_TIMEOUT</text>
</g>
<!-- 3&#45;&gt;4 -->
<g id="edge6" class="edge">
<title>3&#45;&gt;4</title>
<path fill="none" stroke="black" d="M828.51,-187.73C869.03,-187.73 925.07,-187.73 967.9,-187.73"/>
<polygon fill="black" stroke="black" points="967.81,-191.23 977.81,-187.73 967.81,-184.23 967.81,-191.23"/>
<text text-anchor="middle" x="903.79" y="-190.93" font-family="Times,serif" font-size="14.00">upon sending KILL</text>
</g>
<!-- 3&#45;&gt;4 -->
<g id="edge7" class="edge">
<title>3&#45;&gt;4</title>
<path fill="none" stroke="black" d="M825.64,-171.3C832.43,-169.62 839.36,-168.18 846.04,-167.23 896.86,-159.98 910.73,-159.87 961.54,-167.23 964.68,-167.68 967.88,-168.25 971.09,-168.9"/>
<polygon fill="black" stroke="black" points="970,-172.24 980.53,-171.05 971.56,-165.41 970,-172.24"/>
<text text-anchor="middle" x="903.79" y="-169.93" font-family="Times,serif" font-size="14.00">upon receiving KILL</text>
</g>
</g>
</svg>
