<?xml version="1.0" encoding="UTF-8" standalone="no"?>
<!DOCTYPE svg PUBLIC "-//W3C//DTD SVG 1.1//EN"
 "http://www.w3.org/Graphics/SVG/1.1/DTD/svg11.dtd">
<!-- Generated by graphviz version 11.0.0 (0)
 -->
<!-- Title: finite_state_machine Pages: 1 -->
<svg width="848pt" height="172pt"
 viewBox="0.00 0.00 847.55 172.12" xmlns="http://www.w3.org/2000/svg" xmlns:xlink="http://www.w3.org/1999/xlink">
<g id="graph0" class="graph" transform="scale(1 1) rotate(0) translate(4 168.12)">
<title>finite_state_machine</title>
<polygon fill="white" stroke="none" points="-4,4 -4,-168.12 843.55,-168.12 843.55,4 -4,4"/>
<!-- 0 -->
<g id="node1" class="node">
<title>0</title>
<ellipse fill="none" stroke="black" cx="73.78" cy="-76.94" rx="69.78" ry="69.78"/>
<ellipse fill="none" stroke="black" cx="73.78" cy="-76.94" rx="73.78" ry="73.78"/>
<text text-anchor="middle" x="73.78" y="-71.89" font-family="Times,serif" font-size="14.00">INITIALIZING</text>
</g>
<!-- 1 -->
<g id="node2" class="node">
<title>1</title>
<ellipse fill="none" stroke="black" cx="394.48" cy="-76.94" rx="52.68" ry="52.68"/>
<text text-anchor="middle" x="394.48" y="-88.39" font-family="Times,serif" font-size="14.00">WAITING</text>
<text text-anchor="middle" x="394.48" y="-71.89" font-family="Times,serif" font-size="14.00">LOCAL</text>
<text text-anchor="middle" x="394.48" y="-55.39" font-family="Times,serif" font-size="14.00">MODELS</text>
</g>
<!-- 0&#45;&gt;1 -->
<g id="edge1" class="edge">
<title>0&#45;&gt;1</title>
<path fill="none" stroke="black" d="M147.89,-76.94C203.02,-76.94 277.86,-76.94 330.39,-76.94"/>
<polygon fill="black" stroke="black" points="330.06,-80.44 340.06,-76.94 330.06,-73.44 330.06,-80.44"/>
<text text-anchor="middle" x="244.68" y="-80.14" font-family="Times,serif" font-size="14.00">NMEvent::ClusterConnected</text>
</g>
<!-- 1&#45;&gt;1 -->
<g id="edge2" class="edge">
<title>1&#45;&gt;1</title>
<path fill="none" stroke="black" d="M366.4,-121.8C366.69,-136.21 376.05,-147.62 394.48,-147.62 407.73,-147.62 416.29,-141.72 420.17,-133.06"/>
<polygon fill="black" stroke="black" points="423.59,-133.79 422.25,-123.28 416.74,-132.34 423.59,-133.79"/>
<text text-anchor="middle" x="394.48" y="-150.82" font-family="Times,serif" font-size="14.00">Packet::SendLocalModel</text>
</g>
<!-- 2 -->
<g id="node3" class="node">
<title>2</title>
<ellipse fill="none" stroke="black" cx="762.6" cy="-76.94" rx="76.94" ry="76.94"/>
<text text-anchor="middle" x="762.6" y="-71.89" font-family="Times,serif" font-size="14.00">AGGREGATING</text>
</g>
<!-- 1&#45;&gt;2 -->
<g id="edge3" class="edge">
<title>1&#45;&gt;2</title>
<path fill="none" stroke="black" d="M447.55,-76.94C506.49,-76.94 603.46,-76.94 674.08,-76.94"/>
<polygon fill="black" stroke="black" points="673.67,-80.44 683.67,-76.94 673.67,-73.44 673.67,-80.44"/>
<text text-anchor="middle" x="566.41" y="-80.14" font-family="Times,serif" font-size="14.00">n_local_models &gt;= n_client_training</text>
</g>
<!-- 2&#45;&gt;1 -->
<g id="edge4" class="edge">
<title>2&#45;&gt;1</title>
<path fill="none" stroke="black" d="M687.23,-59.19C680.64,-58.08 674.05,-57.13 667.66,-56.44 578.18,-46.79 554.24,-43.61 465.16,-56.44 462.16,-56.87 459.12,-57.4 456.05,-58.01"/>
<polygon fill="black" stroke="black" points="455.42,-54.57 446.44,-60.18 456.96,-61.4 455.42,-54.57"/>
<text text-anchor="middle" x="566.41" y="-59.14" font-family="Times,serif" font-size="14.00">Aggregation finished</text>
</g>
</g>
</svg>
